<?xml version="1.0" standalone="no"?><!DOCTYPE svg PUBLIC "-//W3C//DTD SVG 1.1//EN" "http://www.w3.org/Graphics/SVG/1.1/DTD/svg11.dtd"><svg t="1489538218277" class="icon" style="" viewBox="0 0 1024 1024" version="1.1" xmlns="http://www.w3.org/2000/svg" p-id="3487" xmlns:xlink="http://www.w3.org/1999/xlink" width="200" height="200"><defs><style type="text/css"></style></defs><path d="M512 204.8c-187.136 0-333.056 117.184-512 307.072C154.176 674.304 283.52 819.2 512 819.2c228.48 0 396.352-183.424 512-303.872C905.6 374.208 737.728 204.8 512 204.8zM512 716.736c-112.96 0-204.8-91.904-204.8-204.736 0-112.896 91.904-204.8 204.8-204.8s204.8 91.904 204.8 204.8C716.8 624.896 624.96 716.736 512 716.736z" p-id="3488"></path><path d="M512 512m-137.216 0a2.144 2.144 0 1 0 274.432 0 2.144 2.144 0 1 0-274.432 0Z" p-id="3489"></path></svg>