<?xml version="1.0" standalone="no"?><!DOCTYPE svg PUBLIC "-//W3C//DTD SVG 1.1//EN" "http://www.w3.org/Graphics/SVG/1.1/DTD/svg11.dtd"><svg t="1489538185170" class="icon" style="" viewBox="0 0 1024 1024" version="1.1" xmlns="http://www.w3.org/2000/svg" p-id="2722" xmlns:xlink="http://www.w3.org/1999/xlink" width="200" height="200"><defs><style type="text/css"></style></defs><path d="M841.101413 178.450275c-72.443939-73.305563-126.807081-62.308091-126.807081-62.308091L460.661751 372.743376 170.785711 666.016793l-50.695612 241.933121 239.101633-51.309596L649.066749 563.366901l253.634628-256.580726C902.701376 306.785152 913.586284 251.774257 841.101413 178.450275zM344.95345 827.552839l-81.504292 17.757432c-7.884574-14.901385-17.336854-29.78128-34.69315-47.332005-17.336854-17.544585-32.0653-27.113521-46.77328-35.104519l17.572214-82.44778 23.553439-23.849174c0 0 44.360324 0.898463 94.428649 51.582819 50.087768 50.66082 50.989301 95.567589 50.989301 95.567589L344.95345 827.552839z" p-id="2723"></path></svg>