<?xml version="1.0" standalone="no"?><!DOCTYPE svg PUBLIC "-//W3C//DTD SVG 1.1//EN" "http://www.w3.org/Graphics/SVG/1.1/DTD/svg11.dtd"><svg t="1489538240436" class="icon" style="" viewBox="0 0 1024 1024" version="1.1" xmlns="http://www.w3.org/2000/svg" p-id="4144" xmlns:xlink="http://www.w3.org/1999/xlink" width="200" height="200"><defs><style type="text/css"></style></defs><path d="M63.98836 679.652348l0 55.946196c0 30.908964 25.054629 55.963593 55.963593 55.963593l55.946196 0c0.005117 0 0.011256 0 0.016373 0l55.963593 0 0 167.889755 251.835655-167.889755L847.475588 791.562137c0 0 0.005117 0 0.011256 0l55.952336 0c30.908964 0 55.963593-25.054629 55.963593-55.963593L959.402773 120.001071c0-30.908964-25.054629-55.963593-55.963593-55.963593L791.513018 64.037479 679.585833 64.037479l0 0L231.884254 64.037479l-0.005117 0L119.951953 64.037479c-30.908964 0-55.963593 25.054629-55.963593 55.963593l0 55.952336c0 0.005117 0 0.005117 0 0.011256l0 503.670288C63.98836 679.641091 63.98836 679.646208 63.98836 679.652348zM175.915545 175.964664l111.927185 0 0 0 447.706695 0 0 0L847.475588 175.964664l0 391.744125 0 111.927185L735.549425 679.635975l0 0-251.835655 0-139.90847 83.944877 0-83.944877-55.963593 0 0 0L175.915545 679.635975 175.915545 175.964664zM679.585833 567.708789l55.963593 0L735.549425 455.781604l-447.706695 0 0 111.927185L679.585833 567.708789 679.585833 567.708789zM735.549425 287.891849l-447.706695 0 0 111.927185 447.706695 0L735.549425 287.891849z" p-id="4145"></path></svg>