<?xml version="1.0" standalone="no"?><!DOCTYPE svg PUBLIC "-//W3C//DTD SVG 1.1//EN" "http://www.w3.org/Graphics/SVG/1.1/DTD/svg11.dtd"><svg t="1489538269116" class="icon" style="" viewBox="0 0 1024 1024" version="1.1" xmlns="http://www.w3.org/2000/svg" p-id="5460" xmlns:xlink="http://www.w3.org/1999/xlink" width="200" height="200"><defs><style type="text/css"></style></defs><path d="M256 512c0 70.4-57.6 128-128 128S0 582.4 0 512s57.6-128 128-128S256 441.6 256 512zM512 384C441.6 384 384 441.6 384 512s57.6 128 128 128 128-57.6 128-128S582.4 384 512 384zM896 384c-70.4 0-128 57.6-128 128s57.6 128 128 128 128-57.6 128-128S966.4 384 896 384z" p-id="5461"></path></svg>